<svg width="63" height="57" viewBox="0 0 63 57" fill="none" xmlns="http://www.w3.org/2000/svg">
<path d="M10.6175 33.7966V54.7448H25.8525V39.5098C25.8525 38.4994 26.2538 37.5307 26.968 36.8165C27.6822 36.1022 28.6512 35.701 29.6613 35.701H33.47C34.4801 35.701 35.4488 36.1022 36.1633 36.8165C36.8776 37.5307 37.2788 38.4994 37.2788 39.5098V54.7448H52.5138V33.7966" stroke="#623BFA" stroke-width="4.06" stroke-linecap="round" stroke-linejoin="round"/>
<path d="M3 29.988L28.8716 4.11642C29.2253 3.76249 29.6453 3.48171 30.1074 3.29015C30.5698 3.0986 31.0652 3 31.5656 3C32.0661 3 32.5615 3.0986 33.0236 3.29015C33.486 3.48171 33.906 3.76249 34.2597 4.11642L60.1313 29.988" stroke="#623BFA" stroke-width="4.06" stroke-linecap="round" stroke-linejoin="round"/>
</svg>
